<?xml version="1.0" encoding="UTF-8" standalone="no"?>
<svg
   xmlns:dc="http://purl.org/dc/elements/1.1/"
   xmlns:cc="http://creativecommons.org/ns#"
   xmlns:rdf="http://www.w3.org/1999/02/22-rdf-syntax-ns#"
   xmlns:svg="http://www.w3.org/2000/svg"
   xmlns="http://www.w3.org/2000/svg"
   xmlns:sodipodi="http://sodipodi.sourceforge.net/DTD/sodipodi-0.dtd"
   xmlns:inkscape="http://www.inkscape.org/namespaces/inkscape"
   sodipodi:docname="desenhando.svg"
   inkscape:version="1.0 (4035a4fb49, 2020-05-01)"
   id="svg8"
   version="1.1"
   viewBox="0 0 173 194"
   height="194mm"
   width="173mm">
  <defs
     id="defs2" />
  <sodipodi:namedview
     inkscape:window-maximized="0"
     inkscape:window-y="0"
     inkscape:window-x="153"
     inkscape:window-height="1020"
     inkscape:window-width="1749"
     showgrid="false"
     inkscape:document-rotation="0"
     inkscape:current-layer="layer1"
     inkscape:document-units="mm"
     inkscape:cy="533.12132"
     inkscape:cx="559.7637"
     inkscape:zoom="0.49497475"
     inkscape:pageshadow="2"
     inkscape:pageopacity="0"
     borderopacity="0"
     bordercolor="#666666"
     pagecolor="#ffffff"
     id="base" />
  <metadata
     id="metadata5">
    <rdf:RDF>
      <cc:Work
         rdf:about="">
        <dc:format>image/svg+xml</dc:format>
        <dc:type
           rdf:resource="http://purl.org/dc/dcmitype/StillImage" />
        <dc:title></dc:title>
      </cc:Work>
    </rdf:RDF>
  </metadata>
  <g
     id="layer1"
     inkscape:groupmode="layer"
     inkscape:label="Layer 1">
    <path
       id="path24"
       d="M 53.820764,0.63832649 V 16.248742 c 0,3.090942 0.13097,6.297242 -2.16567,8.706537 -2.35961,2.475284 -5.53019,2.405963 -8.68225,2.405963 H 27.097849 V 90.332073 105.6779 c 0,1.64201 -0.52899,4.43786 0.89807,5.62822 1.01606,0.84772 2.631545,0.72125 3.864425,0.72178 h 8.99583 35.718749 c -1.288519,-2.76331 -4.263229,-5.07153 -5.997309,-7.67291 -3.6867,-5.530587 -6.07007,-11.918157 -6.8916,-18.520837 -2.6924,-21.64027 11.902549,-42.38042 32.99724,-47.652776 7.891206,-1.972204 14.414766,-0.345546 22.225006,0.292365 V 11.750825 c 0,-2.4971631 1.01864,-7.9384775 -0.46091,-10.0188485 -1.0025,-1.40937701 -3.0644,-1.09365001 -4.56617,-1.09365001 H 102.23951 53.820764 M 48.529094,4.3424925 C 42.797584,10.074002 35.465264,15.714125 30.802014,22.334158 h 11.90625 c 1.44404,0 3.69168,0.417116 4.97707,-0.348694 1.41992,-0.845979 1.10834,-2.747539 1.10834,-4.149222 0,-3.783542 1.19214,-10.0222047 -0.26458,-13.4937495 m 14.28856,10.9626655 c 3.62294,-1.005072 8.67145,-0.114749 12.43436,-0.114749 h 26.722916 c 2.36987,0 5.9809,-0.677969 8.19811,0.1964 1.63724,0.645715 2.03809,2.760874 0.73739,3.952822 -0.89773,0.822589 -2.25769,0.613277 -3.37925,0.613277 h -8.202086 -25.66458 c -3.15384,0 -8.16213,0.961893 -11.10853,-0.159649 -2.15874,-0.821717 -1.89839,-3.888899 0.26167,-4.488101 m -0.25427,12.19208 c 3.4171,-1.08876 8.57039,-0.135996 12.15946,-0.135996 h 27.252086 c 2.45162,0 5.8494,-0.610023 8.1907,0.135996 1.69466,0.540015 2.02856,2.84189 0.7448,3.982508 -0.97075,0.862277 -2.44501,0.643996 -3.64384,0.643996 h -8.202076 -24.87084 c -3.44963,0 -8.05312,0.806979 -11.37602,-0.114829 -2.11879,-0.58764 -2.49291,-3.798358 -0.25427,-4.511675 m -25.94054,11.86127 c 3.11777,-0.640556 6.87234,-0.09102 10.05417,-0.09102 h 20.6375 c 1.37715,0 3.2205,-0.308769 4.47013,0.385498 1.54385,0.857514 1.68778,3.083987 0.23575,4.110037 -1.98888,1.40547 -6.58548,0.53155 -8.93922,0.53155 h -18.78541 c -2.3807,0 -5.96958,0.67099 -8.20087,-0.19632 -2.52605,-0.98187 -1.97255,-4.225928 0.52795,-4.739749 m 66.145836,2.667009 c -6.026416,0.80115 -11.814176,2.60535 -16.933336,5.97402 -4.38044,2.88264 -8.110011,6.47753 -11.02439,10.84712 -14.41133,21.60852 -3.35413,52.056767 21.8723,58.961867 5.007776,1.3708 10.207096,1.67904 15.345836,1.02314 5.4229,-0.69241 10.68732,-2.57545 15.34583,-5.43084 23.55718,-14.438568 24.02761,-49.918137 1.05834,-65.136437 -3.77614,-2.5019 -8.01476,-4.37171 -12.43542,-5.38506 -4.22063,-0.96759 -8.91249,-1.42743 -13.22916,-0.85381 m 0.52916,4.72572 c 4.15422,-0.49662 8.68495,-0.0635 12.7,1.06071 23.32567,6.53045 32.29134,35.39543 17.24872,54.161797 -2.55614,3.18902 -5.77004,5.87295 -9.31122,7.89781 -3.77243,2.15688 -8.09228,3.74306 -12.43541,4.22883 -10.35394,1.15861 -20.688566,-1.9685 -28.306456,-9.24004 -12.08008,-11.530537 -13.39453,-31.438317 -3.471331,-44.690767 2.670971,-3.56711 5.987261,-6.55743 9.817371,-8.83602 4.18412,-2.48894 8.93286,-4.005 13.758326,-4.58232 m -66.938546,4.79134 c 2.8231,-0.65749 6.36288,-0.10425 9.25938,-0.10425 5.01806,0 10.36135,-0.52917 15.34584,0.0288 2.13413,0.23892 3.3774,3.15674 1.29407,4.43204 -1.80472,1.1049 -4.82626,0.5662 -6.85032,0.5662 h -12.96459 c -1.99315,0 -4.45092,0.37756 -6.34878,-0.33443 -2.345,-0.87974 -2.21199,-4.01161 0.2644,-4.5884 m 68.526046,0.008 c -6.532026,0.86017 -12.458966,2.83819 -17.462496,7.3414 -2.6797,2.41168 -4.96517,5.44248 -6.54606,8.686 -9.89383,20.29963 6.9604,44.504507 29.564806,41.728497 4.37965,-0.5379 8.75083,-2.07169 12.43542,-4.51644 19.95011,-13.235777 15.74615,-44.631497 -7.14375,-51.937707 -3.3782,-1.07817 -7.30568,-1.76821 -10.84792,-1.30175 m 0.52917,4.72573 c 2.42887,-0.28337 5.82586,2.32013 2.85379,4.42013 -1.20941,0.8546 -3.04403,0.47704 -4.44129,0.74453 -2.54212,0.48631 -4.949296,1.37981 -7.143756,2.75802 -1.50018,0.94218 -3.15674,3.23638 -5.02708,3.27237 -4.3606,0.0841 -1.63592,-4.51379 0,-5.85576 4.00077,-3.28242 8.706116,-4.74954 13.758336,-5.33929 m -69.319616,7.44775 c 2.11884,-0.58975 4.94874,-0.11483 7.14253,-0.11483 4.2055,0 9.09551,-0.69691 13.22891,0.0603 2.1844,0.40031 2.83739,3.29406 0.78237,4.39023 -1.45151,0.77417 -3.94137,0.31194 -5.54461,0.31194 h -10.84792 c -1.49844,0 -3.60722,0.37465 -5.01565,-0.19632 -2.06589,-0.83767 -1.87285,-3.85947 0.25437,-4.45135 m 0.79253,11.87212 c 3.12349,-0.50403 6.62694,-0.0807 9.78959,-0.0807 2.27486,0 4.91185,-0.36724 7.14375,0.091 2.34024,0.48075 3.24696,3.60998 0.78237,4.6691 -1.30241,0.5596 -3.09899,0.26697 -4.48654,0.26697 h -9.26042 c -1.52868,0 -3.58388,0.35004 -5.01544,-0.26697 -2.6298,-1.13374 -1.30384,-4.30027 1.04669,-4.67942 m -0.52527,12.19438 c 2.10952,-0.49768 4.7126,-0.10424 6.87527,-0.10424 3.40969,0 7.21617,-0.47731 10.58307,0.0566 2.47174,0.39185 3.11626,3.45281 0.79005,4.62174 -1.34453,0.67548 -3.29838,0.34872 -4.75853,0.34872 -3.9151,0 -10.10444,1.18322 -13.75712,-0.23654 -2.30402,-0.89535 -2.17591,-4.10977 0.26726,-4.6863 m -0.2644,12.181419 c 2.11111,-0.59531 4.95189,-0.11483 7.13967,-0.11483 4.2055,0 9.09551,-0.69691 13.22891,0.0603 2.1844,0.400318 2.83739,3.294068 0.78237,4.390238 -1.45151,0.77417 -3.94137,0.31194 -5.54461,0.31194 h -10.84792 c -1.50817,0 -3.60116,0.36803 -5.02218,-0.19632 -2.06973,-0.82233 -1.84931,-3.85577 0.26376,-4.451348 m 102.918836,9.674748 -2.91042,2.91042 c 0.60669,1.30095 2.50032,3.77587 3.96875,4.14179 1.06151,0.26458 3.12023,-1.79044 3.12023,-2.81887 0,-1.48802 -2.96968,-3.66951 -4.17856,-4.23334 m 9.525,6.44155 c -1.01203,0.25215 -1.94072,1.58459 -2.64583,2.2897 -0.88318,0.88318 -3.38482,2.61276 -3.38482,3.96875 0,1.00859 1.42055,2.00422 2.0619,2.64583 l 6.61458,6.61459 c 2.15636,2.15635 4.48099,5.24086 7.9375,4.24947 2.80141,-0.80354 4.16851,-4.01743 2.93159,-6.63072 -1.64968,-3.48536 -6.04494,-6.55294 -8.75242,-9.26042 -0.92789,-0.92789 -3.29195,-4.24391 -4.7625,-3.8772 z"
       style="fill:#020202;stroke:none;stroke-width:0.264583" />
    <path
       transform="scale(0.26458333)"
       id="path58"
       d=""
       style="fill:#a0a0a0;stroke:none;stroke-width:0.0446429" />
    <path
       transform="scale(0.26458333)"
       id="path82"
       d=""
       style="fill:#a0a0a0;stroke:none;stroke-width:0.0446429" />
    <path
       transform="scale(0.26458333)"
       id="path86"
       d=""
       style="fill:#a0a0a0;stroke:none;stroke-width:0.0446429" />
    <path
       transform="scale(0.26458333)"
       id="path88"
       d=""
       style="fill:#a0a0a0;stroke:none;stroke-width:0.0446429" />
    <path
       transform="scale(0.26458333)"
       id="path90"
       d=""
       style="fill:#a0a0a0;stroke:none;stroke-width:0.0446429" />
    <path
       transform="scale(0.26458333)"
       id="path94"
       d=""
       style="fill:#a0a0a0;stroke:none;stroke-width:0.0446429" />
    <path
       transform="scale(0.26458333)"
       id="path96"
       d=""
       style="fill:#a0a0a0;stroke:none;stroke-width:0.0446429" />
    <path
       transform="scale(0.26458333)"
       id="path120"
       d=""
       style="fill:#a0a0a0;stroke:none;stroke-width:0.0446429" />
    <path
       transform="scale(0.26458333)"
       id="path122"
       d=""
       style="fill:#a0a0a0;stroke:none;stroke-width:0.0446429" />
    <path
       transform="scale(0.26458333)"
       id="path132"
       d=""
       style="fill:#000000;stroke-width:0.0446429" />
    <path
       transform="scale(0.26458333)"
       id="path134"
       d=""
       style="fill:#000000;stroke-width:0.0446429" />
    <path
       transform="scale(0.26458333)"
       id="path136"
       d=""
       style="fill:#000000;stroke-width:0.0446429" />
    <path
       transform="scale(0.26458333)"
       id="path138"
       d=""
       style="fill:#000000;stroke-width:0.0446429" />
    <path
       transform="scale(0.26458333)"
       id="path150"
       d=""
       style="fill:#000000;stroke-width:0.0446429" />
    <path
       transform="scale(0.26458333)"
       id="path156"
       d=""
       style="fill:#000000;stroke-width:0.0446429" />
    <path
       transform="scale(0.26458333)"
       id="path160"
       d=""
       style="fill:#000000;stroke-width:0.0446429" />
    <path
       transform="scale(0.26458333)"
       id="path166"
       d=""
       style="fill:#000000;stroke-width:0.0446429" />
    <path
       transform="scale(0.26458333)"
       id="path174"
       d=""
       style="fill:#000000;stroke-width:0.0446429" />
    <path
       transform="scale(0.26458333)"
       id="path178"
       d=""
       style="fill:#000000;stroke-width:0.0446429" />
    <path
       transform="scale(0.26458333)"
       id="path186"
       d=""
       style="fill:#000000;stroke-width:0.0446429" />
    <path
       transform="scale(0.26458333)"
       id="path188"
       d=""
       style="fill:#000000;stroke-width:0.0446429" />
    <path
       transform="scale(0.26458333)"
       id="path190"
       d=""
       style="fill:#000000;stroke-width:0.0446429" />
    <path
       transform="scale(0.26458333)"
       id="path202"
       d=""
       style="fill:#000000;stroke-width:0.0446429" />
    <path
       transform="scale(0.26458333)"
       id="path206"
       d=""
       style="fill:#000000;stroke-width:0.0446429" />
    <path
       transform="scale(0.26458333)"
       id="path210"
       d=""
       style="fill:#000000;stroke-width:0.0446429" />
    <path
       sodipodi:insensitive="true"
       id="path232"
       d="m 165.04852,188.18276 c 0.0316,0.27839 0.16327,0.52955 0.24519,0.79352 0.0156,0.0502 0.0199,0.10339 0.0354,0.15355 0.0199,0.0643 0.054,0.12387 0.0709,0.18899 0.0125,0.0483 0.0118,0.10264 0.0118,0.15355 0,0.0142 0.0374,0.032 0.0236,0.0354 -0.0598,0.015 -0.12287,0.0111 -0.1843,0.0167"
       style="fill:none;stroke:#000000;stroke-width:0.264583px;stroke-linecap:butt;stroke-linejoin:miter;stroke-opacity:1" />
    <text
       transform="scale(0.9032703,1.1070883)"
       id="text236"
       y="143.56163"
       x="-2.770252e-06"
       style="font-style:normal;font-weight:normal;font-size:24.4208px;line-height:1.25;font-family:sans-serif;fill:#000000;fill-opacity:1;stroke:none;stroke-width:0.610517"
       xml:space="preserve"><tspan
         style="stroke-width:0.610517"
         y="143.56163"
         x="-2.770252e-06"
         id="tspan234"
         sodipodi:role="line">Informações do</tspan><tspan
         id="tspan238"
         style="stroke-width:0.610517"
         y="174.08763"
         x="-2.770252e-06"
         sodipodi:role="line">    FAMACHA</tspan></text>
  </g>
</svg>
